<mxfile host="app.diagrams.net" modified="2022-04-21T02:17:23.812Z" agent="5.0 (Windows NT 10.0; Win64; x64) AppleWebKit/537.36 (KHTML, like Gecko) Chrome/87.0.4280.88 Safari/537.36" etag="paa_EENzXaDS0QzM_mII" version="17.4.3" type="github">
  <diagram id="TJR2XnsxmfBP1LCEgSje" name="Page-1">
    <mxGraphModel dx="898" dy="482" grid="1" gridSize="10" guides="1" tooltips="1" connect="1" arrows="1" fold="1" page="1" pageScale="1" pageWidth="827" pageHeight="1169" math="0" shadow="0">
      <root>
        <mxCell id="0" />
        <mxCell id="1" parent="0" />
        <mxCell id="POAUunJpzuuo5j0fUgmh-6" value="" style="edgeStyle=orthogonalEdgeStyle;rounded=0;orthogonalLoop=1;jettySize=auto;html=1;" edge="1" parent="1" source="POAUunJpzuuo5j0fUgmh-1" target="POAUunJpzuuo5j0fUgmh-4">
          <mxGeometry relative="1" as="geometry" />
        </mxCell>
        <mxCell id="POAUunJpzuuo5j0fUgmh-7" style="edgeStyle=orthogonalEdgeStyle;rounded=0;orthogonalLoop=1;jettySize=auto;html=1;exitX=0.5;exitY=1;exitDx=0;exitDy=0;entryX=0.5;entryY=0;entryDx=0;entryDy=0;" edge="1" parent="1" source="POAUunJpzuuo5j0fUgmh-1" target="POAUunJpzuuo5j0fUgmh-3">
          <mxGeometry relative="1" as="geometry" />
        </mxCell>
        <mxCell id="POAUunJpzuuo5j0fUgmh-8" style="edgeStyle=orthogonalEdgeStyle;rounded=0;orthogonalLoop=1;jettySize=auto;html=1;exitX=0.5;exitY=1;exitDx=0;exitDy=0;entryX=0.5;entryY=0;entryDx=0;entryDy=0;" edge="1" parent="1" source="POAUunJpzuuo5j0fUgmh-1" target="POAUunJpzuuo5j0fUgmh-2">
          <mxGeometry relative="1" as="geometry" />
        </mxCell>
        <mxCell id="POAUunJpzuuo5j0fUgmh-9" style="edgeStyle=orthogonalEdgeStyle;rounded=0;orthogonalLoop=1;jettySize=auto;html=1;exitX=0.5;exitY=1;exitDx=0;exitDy=0;entryX=0.5;entryY=0;entryDx=0;entryDy=0;" edge="1" parent="1" source="POAUunJpzuuo5j0fUgmh-1" target="POAUunJpzuuo5j0fUgmh-5">
          <mxGeometry relative="1" as="geometry" />
        </mxCell>
        <mxCell id="POAUunJpzuuo5j0fUgmh-1" value="系统服务功能" style="rounded=0;whiteSpace=wrap;html=1;" vertex="1" parent="1">
          <mxGeometry x="335" y="90" width="158" height="30" as="geometry" />
        </mxCell>
        <mxCell id="POAUunJpzuuo5j0fUgmh-14" style="edgeStyle=orthogonalEdgeStyle;rounded=0;orthogonalLoop=1;jettySize=auto;html=1;exitX=0.5;exitY=1;exitDx=0;exitDy=0;entryX=0.5;entryY=0;entryDx=0;entryDy=0;" edge="1" parent="1" source="POAUunJpzuuo5j0fUgmh-2" target="POAUunJpzuuo5j0fUgmh-10">
          <mxGeometry relative="1" as="geometry" />
        </mxCell>
        <mxCell id="POAUunJpzuuo5j0fUgmh-15" style="edgeStyle=orthogonalEdgeStyle;rounded=0;orthogonalLoop=1;jettySize=auto;html=1;exitX=0.5;exitY=1;exitDx=0;exitDy=0;entryX=0.5;entryY=0;entryDx=0;entryDy=0;" edge="1" parent="1" source="POAUunJpzuuo5j0fUgmh-2" target="POAUunJpzuuo5j0fUgmh-11">
          <mxGeometry relative="1" as="geometry" />
        </mxCell>
        <mxCell id="POAUunJpzuuo5j0fUgmh-16" style="edgeStyle=orthogonalEdgeStyle;rounded=0;orthogonalLoop=1;jettySize=auto;html=1;exitX=0.5;exitY=1;exitDx=0;exitDy=0;entryX=0.5;entryY=0;entryDx=0;entryDy=0;" edge="1" parent="1" source="POAUunJpzuuo5j0fUgmh-2" target="POAUunJpzuuo5j0fUgmh-12">
          <mxGeometry relative="1" as="geometry" />
        </mxCell>
        <mxCell id="POAUunJpzuuo5j0fUgmh-17" style="edgeStyle=orthogonalEdgeStyle;rounded=0;orthogonalLoop=1;jettySize=auto;html=1;exitX=0.5;exitY=1;exitDx=0;exitDy=0;entryX=0.5;entryY=0;entryDx=0;entryDy=0;" edge="1" parent="1" source="POAUunJpzuuo5j0fUgmh-2" target="POAUunJpzuuo5j0fUgmh-13">
          <mxGeometry relative="1" as="geometry" />
        </mxCell>
        <mxCell id="POAUunJpzuuo5j0fUgmh-2" value="车间监控管理" style="rounded=0;whiteSpace=wrap;html=1;" vertex="1" parent="1">
          <mxGeometry x="90" y="170" width="110" height="30" as="geometry" />
        </mxCell>
        <mxCell id="POAUunJpzuuo5j0fUgmh-22" style="edgeStyle=orthogonalEdgeStyle;rounded=0;orthogonalLoop=1;jettySize=auto;html=1;exitX=0.5;exitY=1;exitDx=0;exitDy=0;entryX=0.5;entryY=0;entryDx=0;entryDy=0;" edge="1" parent="1" source="POAUunJpzuuo5j0fUgmh-3" target="POAUunJpzuuo5j0fUgmh-18">
          <mxGeometry relative="1" as="geometry" />
        </mxCell>
        <mxCell id="POAUunJpzuuo5j0fUgmh-23" style="edgeStyle=orthogonalEdgeStyle;rounded=0;orthogonalLoop=1;jettySize=auto;html=1;exitX=0.5;exitY=1;exitDx=0;exitDy=0;entryX=0.5;entryY=0;entryDx=0;entryDy=0;" edge="1" parent="1" source="POAUunJpzuuo5j0fUgmh-3" target="POAUunJpzuuo5j0fUgmh-19">
          <mxGeometry relative="1" as="geometry" />
        </mxCell>
        <mxCell id="POAUunJpzuuo5j0fUgmh-25" style="edgeStyle=orthogonalEdgeStyle;rounded=0;orthogonalLoop=1;jettySize=auto;html=1;exitX=0.5;exitY=1;exitDx=0;exitDy=0;entryX=0.5;entryY=0;entryDx=0;entryDy=0;" edge="1" parent="1" source="POAUunJpzuuo5j0fUgmh-3" target="POAUunJpzuuo5j0fUgmh-20">
          <mxGeometry relative="1" as="geometry" />
        </mxCell>
        <mxCell id="POAUunJpzuuo5j0fUgmh-3" value="车间场景管理" style="rounded=0;whiteSpace=wrap;html=1;" vertex="1" parent="1">
          <mxGeometry x="270" y="170" width="110" height="30" as="geometry" />
        </mxCell>
        <mxCell id="POAUunJpzuuo5j0fUgmh-30" style="edgeStyle=orthogonalEdgeStyle;rounded=0;orthogonalLoop=1;jettySize=auto;html=1;exitX=0.5;exitY=1;exitDx=0;exitDy=0;entryX=0.5;entryY=0;entryDx=0;entryDy=0;" edge="1" parent="1" source="POAUunJpzuuo5j0fUgmh-4" target="POAUunJpzuuo5j0fUgmh-26">
          <mxGeometry relative="1" as="geometry" />
        </mxCell>
        <mxCell id="POAUunJpzuuo5j0fUgmh-32" style="edgeStyle=orthogonalEdgeStyle;rounded=0;orthogonalLoop=1;jettySize=auto;html=1;exitX=0.5;exitY=1;exitDx=0;exitDy=0;entryX=0.5;entryY=0;entryDx=0;entryDy=0;" edge="1" parent="1" source="POAUunJpzuuo5j0fUgmh-4" target="POAUunJpzuuo5j0fUgmh-28">
          <mxGeometry relative="1" as="geometry" />
        </mxCell>
        <mxCell id="POAUunJpzuuo5j0fUgmh-33" style="edgeStyle=orthogonalEdgeStyle;rounded=0;orthogonalLoop=1;jettySize=auto;html=1;exitX=0.5;exitY=1;exitDx=0;exitDy=0;entryX=0.5;entryY=0;entryDx=0;entryDy=0;" edge="1" parent="1" source="POAUunJpzuuo5j0fUgmh-4" target="POAUunJpzuuo5j0fUgmh-29">
          <mxGeometry relative="1" as="geometry" />
        </mxCell>
        <mxCell id="POAUunJpzuuo5j0fUgmh-4" value="模型配置管理" style="rounded=0;whiteSpace=wrap;html=1;" vertex="1" parent="1">
          <mxGeometry x="450" y="170" width="110" height="30" as="geometry" />
        </mxCell>
        <mxCell id="POAUunJpzuuo5j0fUgmh-35" style="edgeStyle=orthogonalEdgeStyle;rounded=0;orthogonalLoop=1;jettySize=auto;html=1;exitX=0.5;exitY=1;exitDx=0;exitDy=0;entryX=0.5;entryY=0;entryDx=0;entryDy=0;" edge="1" parent="1" source="POAUunJpzuuo5j0fUgmh-5" target="POAUunJpzuuo5j0fUgmh-34">
          <mxGeometry relative="1" as="geometry" />
        </mxCell>
        <mxCell id="POAUunJpzuuo5j0fUgmh-37" style="edgeStyle=orthogonalEdgeStyle;rounded=0;orthogonalLoop=1;jettySize=auto;html=1;exitX=0.5;exitY=1;exitDx=0;exitDy=0;entryX=0.5;entryY=0;entryDx=0;entryDy=0;" edge="1" parent="1" source="POAUunJpzuuo5j0fUgmh-5" target="POAUunJpzuuo5j0fUgmh-36">
          <mxGeometry relative="1" as="geometry" />
        </mxCell>
        <mxCell id="POAUunJpzuuo5j0fUgmh-39" style="edgeStyle=orthogonalEdgeStyle;rounded=0;orthogonalLoop=1;jettySize=auto;html=1;exitX=0.5;exitY=1;exitDx=0;exitDy=0;entryX=0.5;entryY=0;entryDx=0;entryDy=0;" edge="1" parent="1" source="POAUunJpzuuo5j0fUgmh-5" target="POAUunJpzuuo5j0fUgmh-38">
          <mxGeometry relative="1" as="geometry" />
        </mxCell>
        <mxCell id="POAUunJpzuuo5j0fUgmh-5" value="用户管理" style="rounded=0;whiteSpace=wrap;html=1;" vertex="1" parent="1">
          <mxGeometry x="620" y="170" width="110" height="30" as="geometry" />
        </mxCell>
        <mxCell id="POAUunJpzuuo5j0fUgmh-10" value="场景漫游" style="rounded=0;whiteSpace=wrap;html=1;" vertex="1" parent="1">
          <mxGeometry x="75" y="240" width="20" height="110" as="geometry" />
        </mxCell>
        <mxCell id="POAUunJpzuuo5j0fUgmh-11" value="视角切换" style="rounded=0;whiteSpace=wrap;html=1;" vertex="1" parent="1">
          <mxGeometry x="115" y="240" width="20" height="110" as="geometry" />
        </mxCell>
        <mxCell id="POAUunJpzuuo5j0fUgmh-12" value="信息看板" style="rounded=0;whiteSpace=wrap;html=1;" vertex="1" parent="1">
          <mxGeometry x="155" y="240" width="20" height="110" as="geometry" />
        </mxCell>
        <mxCell id="POAUunJpzuuo5j0fUgmh-13" value="日志记录" style="rounded=0;whiteSpace=wrap;html=1;" vertex="1" parent="1">
          <mxGeometry x="195" y="240" width="20" height="110" as="geometry" />
        </mxCell>
        <mxCell id="POAUunJpzuuo5j0fUgmh-18" value="场景搭建" style="rounded=0;whiteSpace=wrap;html=1;" vertex="1" parent="1">
          <mxGeometry x="270" y="240" width="20" height="110" as="geometry" />
        </mxCell>
        <mxCell id="POAUunJpzuuo5j0fUgmh-19" value="场景加载" style="rounded=0;whiteSpace=wrap;html=1;" vertex="1" parent="1">
          <mxGeometry x="315" y="240" width="20" height="110" as="geometry" />
        </mxCell>
        <mxCell id="POAUunJpzuuo5j0fUgmh-20" value="场景切换" style="rounded=0;whiteSpace=wrap;html=1;" vertex="1" parent="1">
          <mxGeometry x="360" y="240" width="20" height="110" as="geometry" />
        </mxCell>
        <mxCell id="POAUunJpzuuo5j0fUgmh-26" value="上传模型" style="rounded=0;whiteSpace=wrap;html=1;" vertex="1" parent="1">
          <mxGeometry x="450" y="240" width="20" height="110" as="geometry" />
        </mxCell>
        <mxCell id="POAUunJpzuuo5j0fUgmh-28" value="配置连接数据" style="rounded=0;whiteSpace=wrap;html=1;" vertex="1" parent="1">
          <mxGeometry x="495" y="240" width="20" height="110" as="geometry" />
        </mxCell>
        <mxCell id="POAUunJpzuuo5j0fUgmh-29" value="数据驱动" style="rounded=0;whiteSpace=wrap;html=1;" vertex="1" parent="1">
          <mxGeometry x="540" y="240" width="20" height="110" as="geometry" />
        </mxCell>
        <mxCell id="POAUunJpzuuo5j0fUgmh-34" value="账号注册" style="rounded=0;whiteSpace=wrap;html=1;" vertex="1" parent="1">
          <mxGeometry x="620" y="240" width="20" height="110" as="geometry" />
        </mxCell>
        <mxCell id="POAUunJpzuuo5j0fUgmh-36" value="账号登录" style="rounded=0;whiteSpace=wrap;html=1;" vertex="1" parent="1">
          <mxGeometry x="665" y="240" width="20" height="110" as="geometry" />
        </mxCell>
        <mxCell id="POAUunJpzuuo5j0fUgmh-38" value="服务租赁" style="rounded=0;whiteSpace=wrap;html=1;" vertex="1" parent="1">
          <mxGeometry x="710" y="240" width="20" height="110" as="geometry" />
        </mxCell>
      </root>
    </mxGraphModel>
  </diagram>
</mxfile>
